<?xml version="1.0" encoding="UTF-8"?>
<svg width="752pt" height="752pt" version="1.1" viewBox="0 0 752 752" xmlns="http://www.w3.org/2000/svg">
 <path d="m537.46 300.75c-0.11719-0.29297-0.28906-0.5625-0.49609-0.80469l-37.648-42.711c-0.1875-0.22266-0.41797-0.40625-0.66797-0.55859l-60.383-36.32c-0.33594-0.19922-0.71484-0.33203-1.1094-0.37891l-77.605-9.7656c-0.41016-0.046875-0.82031-0.015625-1.2109 0.10547l-75.301 23.707c-0.36328 0.11719-0.70703 0.30469-1 0.55859l-54.43 46.883c-0.29297 0.25-0.52734 0.55469-0.69531 0.89844l-34.809 70.941c-0.17969 0.37109-0.28516 0.76562-0.29297 1.1758l-2.1328 78.41c-0.007813 0.42969 0.074218 0.85547 0.25 1.2461l19.984 44.309c0.20703 0.46484 0.53516 0.86719 0.95313 1.1562l50.258 35.344c0.25391 0.17578 0.53516 0.3125 0.83203 0.39844l64.023 18.828c0.23047 0.070313 0.46875 0.097657 0.69922 0.10938l79.117 2.75c0.039063 0.003906 0.070313 0.003906 0.097656 0.003906 0.21484 0 0.42188-0.023437 0.62891-0.070312l73.789-16.695c0.28125-0.0625 0.54297-0.16406 0.79688-0.30859l50.793-29.395c0.37109-0.21484 0.69141-0.50391 0.92969-0.86328l28.945-42.527c0.30469-0.45313 0.47656-0.98047 0.49219-1.5234l2.0469-78.406c0.007813-0.39844-0.0625-0.78516-0.21484-1.1523zm-7.9844 183.79-20.832-37.711 40.145-36.215-17.723 71.598zm-50.84 30.293-0.070313 0.015625-36.254-43.133 63.77-23.602-25.91 65.836zm-73.562 16.5-33.758-52.789 68.035-6.2148-32.715 58.797-1.0078 0.22656zm-77.836-2.707-1.1289-0.32812-31.375-60.93 73.516 11.074-40.316 50.211zm-115.25-59.375-11.289-66.145 30.23 34.262-17.273 35.574zm-16.34-47.102 3.6172-17.277 9.9414 58.203-13.832-30.68zm1.8242-66.883 2.6289-5.3594 14.766-16.031-15.164 61.461-2.6289-25.508zm34.277-69.871 4.5938-3.9609 25.293-11.457-43.152 56.848 8.9609-32.652zm53.551-46.129 10.383-3.2695 33.637-4.5469-62.508 34.051 14.125-22.48zm74.145-23.344 19.281 2.4258 20.691 4.7109-62.359 5.7695 16.59-11.082zm28.164 75.301 68.445 33.539-57.777 39.352zm8.9688 73.02-69.691-27.676 59.02-45.266zm-70.613-29.109-2.5469-62.973 61.273 17.93zm70.047 30.715-52.387 45.051-17.238-72.699zm60.891-39.594 0.25391 74.129-57.941-34.852zm-68.559-36.57 48.574-27.973 19.418 61.285zm-1.2266-1.2539-8.9648-40.703 56.953 13.062zm-1.7305 0.089844-60.418-17.68 51.453-23.043zm-61.105 47.262-62.641-11.305 60.09-51.672zm-0.89453 1.5742-53.547 51.582-9.0938-62.891zm-55.199 52.07-39.664-14.34 30.688-47.703zm56.504-50.969 17.258 72.766-71.062-20.922zm72.246 28.84 5.4219 58.879-57.438-14.145zm1.7031-0.12109 57.559 34.629-52.145 24.211zm59.965-40.836 56.461 41.727-56.203 32.363zm-19.699-64 66.293 39.992-46.926 21.137zm-60.012-16.191 25.84-21.547 30.289 34.426zm-55.086 23.348 10.551-38.379 40.453 15.535zm-63.062 53.504 4.3867-54.293 55.219 3.0391zm-33.148 50.383-10.059-41.812 40.48-5.4844zm40.223 17.719-35.203 43.914-4.4414-58.25zm73.734 21.789-47.969 51.73-23.055-72.645zm60.387 14.938-31.918 48.176-25.492-62.312zm54.82-24.41-16.309 66.098-35.754-41.926zm58.82-33.68-8.6719 75.172-47.453-42.859zm-56.16-44.918 46.926-21.137 9.1289 62.566zm-19.914-64.109 36.703-10.891 3.4727 2.082 25.18 48.238zm34.723-12.086-36.535 10.84-30.133-34.234 62.77 21.051zm-97.355-3.0078-39.363-15.117 64.668-5.9805zm-55.004 24.504-54.48-2.9922 65.043-35.43zm-62.934 54.125-40.527 5.4922 44.859-59.094zm-32.652 50.98-25.445 22.609 15.641-63.379zm0.23047 2.0742 4.3867 57.469-30.344-34.402zm42.391 15.18 22.898 72.18-58.52-27.734zm73.922 21.535 25.652 62.73-73.551-11.082zm60.574 14.691 35.754 41.93-67.621 6.1719zm55.098-25.223 47.453 42.855-63.859 23.641zm58.738-33.273 31.859 37.816-40.426 36.477zm-8.9219-64.844 33.566 41.086-24.637 20.09zm0.47656-2.1094 23.055-0.51172 0.52734 0.59766 3.4062 8.3555 5.8633 31.773zm21.582-2.1836-22.832 0.50781-25.051-47.988 1.7188 1.0391 33.168 31.691zm-39.512-42.445 4.4688 2.6914 8.8594 10.051zm-55.02-33.094 27.727 16.676-53.812-18.047 13.188-0.25391zm-30.926-2.9727-8.9883-2.0469 15.289 1.918zm-71.441 6.6055-28.227 3.8164 42.594-13.41zm-69.707 37.973-22.836 10.348 35.617-30.684zm-48.047 63.289-12.984 14.098 20.695-42.176zm-17.234 69.82-2.5781 12.324 0.80469-29.551zm33.383 39.07 27.594 67.523-44.707-31.438-0.19922-0.44531zm1.6914-0.375 58.398 27.68-28.344 43.129-1.5625-1.0977zm59.559 29.02 30.727 59.668-58.609-17.238zm76.645 11.312 33.234 51.984-72.941-2.543zm71.25-6.4492 35.672 42.441-67.828 15.344zm66.68-24.184 20.668 37.414-45.824 26.516zm10.137-80.379 24.582-20.047 6.6836 57.176zm26.047-22.082-4.9336-26.723 15.906 39.027zm12.723 98.492-22.785 33.477 16.453-66.477 6.4961 26.625zm-5.4492-36.555 7.0742-25.887-1.2891 49.578zm-0.53906-4.4688-6.3711-54.496 12.531 14.047 1.832 4.4961-0.1875 7.3984z"/>
</svg>
